<svg width="626" height="64" viewBox="0 0 626 64" fill="none" xmlns="http://www.w3.org/2000/svg">
<g clip-path="url(#clip0_284_7)">
<path d="M22.3078 43.0535C21.7031 43.8673 20.941 44.5084 20.0215 44.9687C19.0938 45.429 18.108 45.6592 17.0643 45.6592C15.2254 45.6592 13.6598 45.0262 12.3758 43.744C11.0919 42.4699 10.4458 40.9081 10.4458 39.0751C10.4458 37.2421 11.0919 35.7461 12.3841 34.4721C13.6846 33.2062 15.2419 32.5651 17.0643 32.5651C18.0832 32.5651 19.0358 32.787 19.9304 33.2227C20.8333 33.6583 21.5871 34.2501 22.2001 35.0146L23.161 34.3077C22.432 33.3953 21.5457 32.6802 20.4771 32.1623C19.4085 31.6445 18.2737 31.3896 17.0643 31.3896C14.9023 31.3896 13.0634 32.1376 11.5392 33.6419C10.015 35.1543 9.25293 36.9709 9.25293 39.0916C9.25293 41.2123 10.015 43.0617 11.5392 44.5742C13.0634 46.0866 14.9023 46.8428 17.0643 46.8428C18.3151 46.8428 19.4914 46.5633 20.5931 45.9962C21.6948 45.429 22.5977 44.6564 23.3101 43.6946L22.3078 43.0535Z" fill="#F7EDE2"/>
<path d="M31.8424 31.5293H30.5336L24.6191 46.6537H25.9197L27.7917 41.8698H34.5842L36.4812 46.6537H37.7568L31.8424 31.5293ZM28.1893 40.7272L31.1797 33.0828L34.2032 40.7272H28.1893Z" fill="#F7EDE2"/>
<path d="M54.6877 31.5293L48.1271 42.552L41.5749 31.5293H40.2412V46.6537H41.4092V33.3952L47.6881 43.9822H48.5662L54.8534 33.3952V46.6537H56.0462V31.5293H54.6877Z" fill="#F7EDE2"/>
<path d="M69.1512 32.8609C68.2318 31.9732 67.0721 31.5293 65.6639 31.5293H59.9482V46.6537H61.1162V40.6697H65.6639C67.0721 40.6697 68.2318 40.2258 69.1512 39.3463C70.0707 38.4586 70.5346 37.3736 70.5346 36.0913C70.5346 34.809 70.0707 33.7404 69.1512 32.8609ZM68.3229 38.4997C67.6354 39.1737 66.7573 39.5107 65.6639 39.5107H61.1162V32.6883H65.6639C66.7573 32.6883 67.6354 33.0253 68.3229 33.6993C69.0021 34.3651 69.3418 35.1624 69.3418 36.0913C69.3418 37.0201 69.0021 37.8339 68.3229 38.4997Z" fill="#F7EDE2"/>
<path d="M79.2154 31.5293H77.8983L71.9922 46.6537H73.2844L75.1648 41.8698H81.949L83.8542 46.6537H85.1299L79.2154 31.5293ZM75.5624 40.7272L78.5527 33.0828L81.5762 40.7272H75.5624Z" fill="#F7EDE2"/>
<path d="M99.0543 31.5293V44.6645L88.7827 31.5293H87.6064V46.6537H88.7827V33.502L99.0543 46.6537H100.239V31.5293H99.0543Z" fill="#F7EDE2"/>
<path d="M114.603 31.5293V38.4914H105.334V31.5293H104.166V46.6537H105.334V39.6751H114.603V46.6537H115.78V31.5293H114.603Z" fill="#F7EDE2"/>
<path d="M125.479 31.5293H124.17L118.256 46.6537H119.556L121.437 41.8698H128.221L130.118 46.6537H131.394L125.479 31.5293ZM121.826 40.7272L124.816 33.0828L127.84 40.7272H121.826Z" fill="#F7EDE2"/>
<path d="M120.857 21H19.1432C8.58174 21 0 29.5239 0 39.9959C0 50.4679 8.58174 59 19.1432 59H120.857C131.418 59 140 50.4761 140 39.9959C140 29.5157 131.418 21 120.857 21ZM120.857 58.178H19.1432C14.2477 58.178 9.65032 56.2875 6.1878 52.8516C2.73357 49.4157 0.828353 44.8538 0.828353 39.9959C0.828353 29.976 9.03734 21.822 19.1432 21.822H120.857C130.954 21.822 139.172 29.976 139.172 39.9959C139.172 50.0158 130.954 58.178 120.857 58.178Z" fill="#F7EDE2"/>
</g>
<g clip-path="url(#clip1_284_7)">
<path d="M486.514 0.108398H487.46V5.49466C487.46 6.29226 487.681 6.90523 488.125 7.33357C488.569 7.76437 489.137 7.97854 489.833 7.97854C490.53 7.97854 491.117 7.76437 491.578 7.33357C492.037 6.90523 492.267 6.2898 492.267 5.49466V0.108398H493.226V5.50697C493.226 6.55074 492.905 7.3828 492.267 8.00316C491.627 8.62351 490.828 8.93369 489.87 8.93369C488.911 8.93369 488.101 8.62351 487.465 8.00316C486.83 7.3828 486.512 6.55074 486.512 5.50697V0.108398H486.514Z" fill="#F7EDE2"/>
<path d="M495.201 8.82538V0.108398H496.232L499.767 6.0904L503.315 0.108398H504.346V8.82538H503.387V1.6716L500.08 7.28434H499.469L496.149 1.6716V8.82538H495.203H495.201Z" fill="#F7EDE2"/>
<path d="M508.937 0.108398H509.98L513.275 8.82538H512.244L511.285 6.30703H507.641L506.695 8.82538H505.639L508.937 0.108398ZM510.984 5.4085L509.463 1.38357L507.942 5.4085H510.984Z" fill="#F7EDE2"/>
<path d="M517.863 8.82538V0.108398H518.81L524.216 7.16617V0.108398H525.174V8.82538H524.216L518.81 1.74545V8.82538H517.863Z" fill="#F7EDE2"/>
<path d="M528.168 1.30225C529.039 0.433264 530.092 0 531.332 0C532.572 0 533.628 0.435726 534.503 1.30718C535.377 2.17863 535.816 3.23225 535.816 4.46557C535.816 5.6989 535.379 6.75498 534.511 7.62889C533.632 8.51266 532.572 8.95577 531.335 8.95577C530.097 8.95577 529.039 8.51512 528.166 7.63628C527.29 6.75744 526.853 5.70136 526.853 4.46557C526.853 3.22979 527.292 2.17617 528.171 1.30225H528.168ZM527.821 4.45327C527.821 5.43303 528.166 6.2651 528.852 6.94946C529.539 7.63382 530.366 7.976 531.332 7.976C532.298 7.976 533.125 7.63382 533.812 6.94946C534.499 6.2651 534.843 5.43303 534.843 4.45327C534.843 3.4735 534.499 2.66851 533.812 1.98661C533.125 1.30472 532.298 0.964997 531.332 0.964997C530.366 0.964997 529.539 1.30472 528.852 1.98661C528.166 2.66605 527.821 3.48827 527.821 4.45327Z" fill="#F7EDE2"/>
<path d="M537.648 0.108398L540.416 7.43942L543.197 0.108398H544.24L540.909 8.82538H539.926L536.595 0.108398H537.65H537.648Z" fill="#F7EDE2"/>
<path d="M547.919 0.108398H548.962L552.257 8.82538H551.226L550.268 6.30703H546.623L545.677 8.82538H544.622L547.919 0.108398ZM549.967 5.4085L548.446 1.38357L546.924 5.4085H549.967Z" fill="#F7EDE2"/>
<path d="M597.034 21.252C597.589 21.252 598.046 21.4243 598.402 21.7714C598.757 22.1185 598.934 22.5395 598.934 23.0343C598.934 23.5291 598.757 23.9574 598.402 24.3021C598.046 24.6467 597.592 24.8166 597.034 24.8166H595.469V27.0346H594.84V21.2495H597.036L597.034 21.252ZM597.019 24.1987C597.395 24.1987 597.701 24.0854 597.934 23.8589C598.167 23.6325 598.283 23.3568 598.283 23.0343C598.283 22.7118 598.167 22.4434 597.934 22.2145C597.701 21.9831 597.395 21.8699 597.019 21.8699H595.469V24.1987H597.019Z" fill="#F7EDE2"/>
<path d="M601.598 21.252H602.289L604.475 27.037H603.791L603.156 25.3655H600.736L600.108 27.037H599.409L601.595 21.252H601.598ZM602.959 24.7698L601.95 22.0988L600.94 24.7698H602.959Z" fill="#F7EDE2"/>
<path d="M607.53 21.252C608.086 21.252 608.542 21.4243 608.899 21.7714C609.253 22.1185 609.43 22.5394 609.43 23.0342C609.43 23.4503 609.299 23.8171 609.032 24.1322C608.768 24.4473 608.426 24.6442 608.006 24.723L609.518 27.037H608.761L607.329 24.819H605.96V27.037H605.332V21.252H607.528H607.53ZM607.516 24.1986C607.892 24.1986 608.198 24.0854 608.431 23.8589C608.663 23.6324 608.78 23.3567 608.78 23.0342C608.78 22.7118 608.663 22.4434 608.431 22.2145C608.198 21.9831 607.892 21.8698 607.516 21.8698H605.965V24.1986H607.516Z" fill="#F7EDE2"/>
<path d="M612.104 21.252H612.796L614.982 27.037H614.298L613.662 25.3655H611.243L610.614 27.037H609.916L612.102 21.252H612.104ZM613.465 24.7698L612.456 22.0988L611.447 24.7698H613.465Z" fill="#F7EDE2"/>
<path d="M618.626 22.0447C619.204 21.4687 619.905 21.1807 620.725 21.1807C621.545 21.1807 622.249 21.4711 622.829 22.0497C623.409 22.6282 623.7 23.3273 623.7 24.1446C623.7 24.9619 623.411 25.6635 622.834 26.2444C622.251 26.8303 621.548 27.1233 620.725 27.1233C619.903 27.1233 619.201 26.8303 618.622 26.2469C618.042 25.6635 617.75 24.9619 617.75 24.1421C617.75 23.3224 618.042 22.6232 618.626 22.0423V22.0447ZM618.396 24.1372C618.396 24.7871 618.624 25.3385 619.08 25.7939C619.536 26.2494 620.085 26.4758 620.725 26.4758C621.366 26.4758 621.917 26.2494 622.37 25.7939C622.824 25.3385 623.055 24.7871 623.055 24.1372C623.055 23.4873 622.827 22.9531 622.37 22.5002C621.914 22.0472 621.366 21.8232 620.725 21.8232C620.085 21.8232 619.534 22.0497 619.08 22.5002C618.624 22.9506 618.396 23.4972 618.396 24.1372Z" fill="#F7EDE2"/>
<path d="M494.667 31.9655C491.983 31.9655 489.702 31.0202 487.822 29.1271C485.939 27.2365 485 24.9471 485 22.2613C485 19.5756 485.939 17.3157 487.822 15.4325C489.702 13.5493 491.986 12.6064 494.667 12.6064C496.152 12.6064 497.559 12.9363 498.894 13.5936C500.226 14.2533 501.339 15.1469 502.235 16.2793L498.086 19.3196C497.159 18.2561 496.018 17.7244 494.669 17.7244C493.42 17.7244 492.35 18.1675 491.457 19.0537C490.561 19.9399 490.115 21.0083 490.115 22.2589C490.115 23.5094 490.561 24.6024 491.457 25.4887C492.352 26.3749 493.422 26.818 494.669 26.818C496.018 26.818 497.132 26.3109 498.01 25.2967L502.438 27.9578C501.543 29.1911 500.42 30.1659 499.061 30.8848C497.702 31.6011 496.239 31.9605 494.669 31.9605L494.667 31.9655Z" fill="#F7EDE2"/>
<path d="M509.521 31.5077H504.562V13.0127H509.521V19.9031H514.607V13.0127H519.566V31.5077H514.607V24.8955H509.521V31.5077Z" fill="#F7EDE2"/>
<path d="M526.351 31.5077H520.86L526.807 13.0127H532.145L538.092 31.5077H532.625L531.866 28.7973H527.084L526.351 31.5077ZM529.464 19.8046L528.248 24.3637H530.704L529.464 19.8046Z" fill="#F7EDE2"/>
<path d="M544.345 31.5077H539.385V13.0127H544.345L550.469 22.6159V13.0127H555.453V31.5077H550.469L544.345 21.8798V31.5077Z" fill="#F7EDE2"/>
<path d="M567.398 31.9655C564.714 31.9655 562.433 31.0202 560.553 29.1271C558.67 27.2365 557.731 24.9471 557.731 22.2613C557.731 19.5756 558.67 17.3157 560.553 15.4325C562.433 13.5493 564.717 12.6064 567.398 12.6064C568.883 12.6064 570.29 12.9363 571.624 13.5936C572.957 14.2533 574.07 15.1469 574.966 16.2793L570.816 19.3196C569.89 18.2561 568.749 17.7244 567.4 17.7244C566.151 17.7244 565.08 18.1675 564.188 19.0537C563.292 19.9399 562.846 21.0083 562.846 22.2589C562.846 23.5094 563.292 24.6024 564.188 25.4887C565.083 26.3749 566.153 26.818 567.4 26.818C568.749 26.818 569.863 26.3109 570.741 25.2967L575.169 27.9578C574.274 29.1911 573.151 30.1659 571.792 30.8848C570.433 31.6011 568.97 31.9605 567.4 31.9605L567.398 31.9655Z" fill="#F7EDE2"/>
<path d="M589.463 31.5077H577.29V13.0127H589.208V17.5472H582.223V19.8268H588.701V24.2849H582.223V26.7417H589.461V31.5052L589.463 31.5077Z" fill="#F7EDE2"/>
<path d="M493.99 63.3578H487.033V37.2905H504.547V44.0037H493.99V47.2876H503.834V54.0007H493.99V63.3578Z" fill="#F7EDE2"/>
<path d="M517.567 64.0003C514.595 64.0003 512.122 63.0131 510.147 61.0364C508.172 59.0596 507.187 56.5363 507.187 53.4665V37.2905H514.177V53.4665C514.177 54.5374 514.493 55.3842 515.121 56.0021C515.752 56.6225 516.577 56.9302 517.601 56.9302C518.625 56.9302 519.421 56.62 520.061 56.0021C520.704 55.3842 521.025 54.5374 521.025 53.4665V37.2905H528.052V53.4665C528.052 56.5388 527.052 59.062 525.055 61.0364C523.058 63.0131 520.561 64.0003 517.565 64.0003H517.567Z" fill="#F7EDE2"/>
<path d="M543.818 63.3578H536.791V44.0037H530.157V37.2905H550.454V44.0037H543.818V63.3578Z" fill="#F7EDE2"/>
<path d="M562.938 64.0003C559.966 64.0003 557.493 63.0131 555.518 61.0364C553.543 59.0596 552.558 56.5363 552.558 53.4665V37.2905H559.549V53.4665C559.549 54.5374 559.864 55.3842 560.492 56.0021C561.123 56.6225 561.948 56.9302 562.972 56.9302C563.996 56.9302 564.792 56.62 565.433 56.0021C566.076 55.3842 566.396 54.5374 566.396 53.4665V37.2905H573.423V53.4665C573.423 56.5388 572.423 59.062 570.426 61.0364C568.429 63.0131 565.932 64.0003 562.936 64.0003H562.938Z" fill="#F7EDE2"/>
<path d="M584.089 63.3578H577.099V37.2905H587.195C590.167 37.2905 592.528 38.13 594.275 39.8089C596.022 41.4878 596.898 43.5876 596.898 46.1109C596.898 47.7061 596.524 49.1585 595.775 50.4682C595.025 51.7778 593.984 52.8019 592.654 53.5404L597.471 63.3602H589.517L585.771 55.0051H584.094V63.3602L584.089 63.3578ZM584.089 44.144V48.1443H587.049C587.906 48.1443 588.558 47.9646 589.01 47.6101C589.461 47.2531 589.687 46.7534 589.687 46.1109C589.687 45.5176 589.454 45.04 588.99 44.6831C588.527 44.3261 587.879 44.1464 587.047 44.1464H584.087L584.089 44.144Z" fill="#F7EDE2"/>
<path d="M612.446 64.0001C608.666 64.0001 605.448 62.6683 602.796 59.9998C600.144 57.3338 598.819 54.1064 598.819 50.3228C598.819 46.5391 600.144 43.3536 602.796 40.6974C605.448 38.0437 608.663 36.7168 612.446 36.7168C616.229 36.7168 619.371 38.0437 622.023 40.6974C624.675 43.3512 626 46.5612 626 50.3228C626 54.0843 624.673 57.3042 622.023 59.9826C619.371 62.6609 616.18 64.0001 612.446 64.0001ZM612.446 56.7503C614.181 56.7503 615.673 56.1251 616.923 54.8745C618.172 53.6239 618.796 52.1075 618.796 50.3228C618.796 48.538 618.172 47.0856 616.923 45.8227C615.673 44.5599 614.181 43.9297 612.446 43.9297C610.711 43.9297 609.175 44.5549 607.916 45.8055C606.654 47.0561 606.026 48.5602 606.026 50.3228C606.026 52.0854 606.657 53.6264 607.916 54.8745C609.175 56.1251 610.687 56.7503 612.446 56.7503Z" fill="#F7EDE2"/>
</g>
<rect x="160" y="37" width="305" height="3" rx="1.5" fill="#94CE41"/>
<defs>
<clipPath id="clip0_284_7">
<rect width="140" height="38" fill="white" transform="translate(0 21)"/>
</clipPath>
<clipPath id="clip1_284_7">
<rect width="141" height="64" fill="white" transform="translate(485)"/>
</clipPath>
</defs>
</svg>
