<svg width="138" height="71" viewBox="0 0 138 71" fill="none" xmlns="http://www.w3.org/2000/svg">
<g clip-path="url(#clip0_34_712)">
<path d="M54.3325 30.2275H66.6503V34.4584H59.4714V38.0383H66.2242V42.2301H59.4714V49.5853H54.3325V30.2275Z" fill="#94CE41"/>
<path d="M73.119 45.0941L72.0345 49.5853H66.7148L72.2798 30.2275H79.1359L84.8558 49.5853H79.3037L78.0771 45.0941H73.119ZM77.367 41.2668L76.4761 37.778C76.1791 36.6845 75.8176 35.1093 75.5206 33.9637H75.469C75.1849 35.1093 74.9009 36.6975 74.6168 37.804L73.7904 41.2668H77.367Z" fill="#94CE41"/>
<path d="M87.3088 30.4879C88.7678 30.2535 90.937 30.0713 93.5064 30.0713C96.4503 30.0713 98.5549 30.4748 100.001 31.5814C101.228 32.5317 101.899 33.9116 101.899 35.7992C101.899 38.2075 100.104 39.9259 98.6065 40.4857V40.5898C99.8848 41.1366 100.569 42.3733 101.06 44.0526C101.641 46.0183 102.273 48.8302 102.635 49.5852H97.3799C97.0829 49.0254 96.5923 47.5154 96.0371 45.1331C95.5206 42.8159 94.8105 42.3342 93.2224 42.3342H92.3831V49.5982H87.2959V30.5009L87.3088 30.4879ZM92.4089 38.6111H93.7517C95.6885 38.6111 96.8118 37.6608 96.8118 36.2028C96.8118 34.7447 95.8692 33.9246 94.152 33.9116C93.1836 33.9116 92.6672 33.9637 92.4089 34.0287V38.6111Z" fill="#94CE41"/>
<path d="M122.712 39.7181C122.712 45.9406 119.007 49.9111 113.08 49.9111C107.154 49.9111 103.861 45.4069 103.861 40.0305C103.861 34.6541 107.528 29.9155 113.403 29.9155C119.575 29.9155 122.712 34.5369 122.712 39.7181ZM109.297 39.9263C109.297 43.5714 110.872 45.7975 113.326 45.7975C115.779 45.7975 117.277 43.3761 117.277 39.8873C117.277 36.3985 115.792 34.0292 113.3 34.0292C110.808 34.0292 109.297 36.3724 109.297 39.9394" fill="#94CE41"/>
<path d="M125.45 30.2275H130.601V45.2373H137.987V49.5853H125.45V30.2275Z" fill="#94CE41"/>
<path d="M54.2808 53.0872C54.5519 53.0351 54.9005 52.9961 55.3653 52.9961C55.9205 52.9961 56.3208 53.1263 56.579 53.3606C56.8114 53.5689 56.9664 53.8943 56.9664 54.2719C56.9664 54.6494 56.8502 54.9878 56.6307 55.2091C56.3337 55.5346 55.856 55.6908 55.3008 55.6908C55.1329 55.6908 54.978 55.6908 54.8489 55.6518V57.4092H54.2937V53.0742L54.2808 53.0872ZM54.836 55.1961C54.9651 55.2352 55.12 55.2482 55.3008 55.2482C55.9851 55.2482 56.3983 54.9097 56.3983 54.3109C56.3983 53.7121 55.9851 53.4517 55.3783 53.4517C55.1329 53.4517 54.9522 53.4778 54.8489 53.4908V55.1961H54.836Z" fill="#94CE41"/>
<path d="M58.5933 53.0872C58.8773 53.0351 59.2905 52.9961 59.6778 52.9961C60.2718 52.9961 60.672 53.1133 60.9432 53.3606C61.1627 53.5559 61.2789 53.8553 61.2789 54.1937C61.2789 54.7665 60.9174 55.1571 60.4655 55.3133C60.8012 55.4435 60.9948 55.7689 61.0981 56.2115C61.2402 56.8234 61.3435 57.24 61.4338 57.4092H60.8528C60.7882 57.279 60.685 56.9145 60.5687 56.3547C60.4396 55.7559 60.2072 55.5216 59.6908 55.5086H59.1614V57.4092H58.6062V53.0872H58.5933ZM59.1614 55.092H59.7295C60.3363 55.092 60.7108 54.7665 60.7108 54.2588C60.7108 53.686 60.2976 53.4387 59.7166 53.4387C59.4454 53.4387 59.2518 53.4647 59.1614 53.4908V55.092Z" fill="#94CE41"/>
<path d="M66.7017 55.1831C66.7017 56.6932 65.7979 57.4873 64.6875 57.4873C63.577 57.4873 62.7378 56.589 62.7378 55.2612C62.7378 53.9334 63.59 52.957 64.752 52.957C65.9141 52.957 66.7146 53.8683 66.7146 55.1701M63.3188 55.2482C63.3188 56.1855 63.8224 57.0317 64.7133 57.0317C65.6042 57.0317 66.1077 56.2115 66.1077 55.2091C66.1077 54.3369 65.6558 53.4257 64.7262 53.4257C63.7966 53.4257 63.3317 54.2979 63.3317 55.2482" fill="#94CE41"/>
<path d="M68.9871 53.5038H67.6572V53.0352H70.8722V53.5038H69.5423V57.4092H68.9871V53.5038Z" fill="#94CE41"/>
<path d="M74.5003 55.3654H72.8088V56.9405H74.6939V57.4092H72.2407V53.0352H74.5906V53.5038H72.8088V54.8967H74.5003V55.3654Z" fill="#94CE41"/>
<path d="M77.5348 52.0459L76.7085 52.8009H76.2437L76.8376 52.0459H77.5219H77.5348ZM76.8763 57.4093H76.3082V53.0222H76.8763V57.4093Z" fill="#94CE41"/>
<path d="M78.7354 57.409V53.022H79.3551L80.7496 55.235C81.0724 55.7427 81.3177 56.2114 81.5243 56.667H81.5372C81.4855 56.0812 81.4726 55.5344 81.4726 54.8575V53.022H82.002V57.409H81.4339L80.0523 55.183C79.7554 54.6883 79.4584 54.1936 79.2389 53.7119H79.226C79.2647 54.2717 79.2647 54.8054 79.2647 55.5214V57.396H78.7354V57.409Z" fill="#94CE41"/>
<path d="M84.5842 56.0423L84.1323 57.4222H83.5513L85.0361 53.0352H85.7075L87.1924 57.4222H86.5984L86.1336 56.0423H84.5971H84.5842ZM86.0045 55.5997L85.5784 54.337C85.488 54.0506 85.4235 53.7902 85.3589 53.5429H85.346C85.2814 53.8032 85.2169 54.0636 85.1265 54.337L84.7004 55.5997H86.0174H86.0045Z" fill="#94CE41"/>
<path d="M88.6388 56.7192C88.8842 56.8754 89.2586 57.0056 89.6459 57.0056C90.2141 57.0056 90.5627 56.7062 90.5627 56.2636C90.5627 55.86 90.3303 55.6127 89.7363 55.3914C89.0262 55.131 88.5872 54.7665 88.5872 54.1417C88.5872 53.4647 89.1553 52.957 89.9946 52.957C90.4335 52.957 90.7693 53.0612 90.95 53.1653L90.7951 53.634C90.653 53.5559 90.369 53.4257 89.9687 53.4257C89.3748 53.4257 89.1424 53.7772 89.1424 54.0766C89.1424 54.4801 89.4006 54.6884 90.0075 54.9227C90.7434 55.2091 91.1179 55.5736 91.1179 56.2115C91.1179 56.8494 90.6272 57.4743 89.5943 57.4743C89.1682 57.4743 88.7163 57.3441 88.4839 57.1879L88.6259 56.7192H88.6388Z" fill="#94CE41"/>
<path d="M97.2896 55.3654H95.5982V56.9405H97.4833V57.4092H95.043V53.0352H97.3929V53.5038H95.5982V54.8967H97.2896V55.3654Z" fill="#94CE41"/>
<path d="M104.675 57.2137C104.417 57.3049 103.926 57.4611 103.332 57.4611C102.674 57.4611 102.132 57.2919 101.705 56.8753C101.331 56.5108 101.099 55.925 101.099 55.248C101.099 53.9462 101.99 52.9829 103.449 52.9829C103.952 52.9829 104.352 53.1001 104.533 53.1782L104.391 53.6338C104.159 53.5297 103.875 53.4516 103.436 53.4516C102.377 53.4516 101.693 54.1155 101.693 55.209C101.693 56.3025 102.351 56.9794 103.371 56.9794C103.733 56.9794 103.991 56.9274 104.12 56.8623V55.5605H103.242V55.1048H104.675V57.2137Z" fill="#94CE41"/>
<path d="M110.137 55.1831C110.137 56.6932 109.233 57.4873 108.123 57.4873C107.012 57.4873 106.173 56.589 106.173 55.2612C106.173 53.9334 107.025 52.957 108.187 52.957C109.349 52.957 110.15 53.8683 110.15 55.1701M106.754 55.2482C106.754 56.1855 107.257 57.0317 108.148 57.0317C109.039 57.0317 109.543 56.2115 109.543 55.2091C109.543 54.3369 109.091 53.4257 108.161 53.4257C107.232 53.4257 106.767 54.2979 106.767 55.2482" fill="#94CE41"/>
<path d="M111.75 53.0872C112.035 53.0351 112.448 52.9961 112.835 52.9961C113.429 52.9961 113.829 53.1133 114.1 53.3606C114.32 53.5559 114.436 53.8553 114.436 54.1937C114.436 54.7665 114.075 55.1571 113.623 55.3133C113.958 55.4435 114.152 55.7689 114.255 56.2115C114.397 56.8234 114.501 57.24 114.591 57.4092H114.01C113.945 57.279 113.842 56.9145 113.726 56.3547C113.597 55.7559 113.364 55.5216 112.848 55.5086H112.319V57.4092H111.763V53.0872H111.75ZM112.306 55.092H112.874C113.481 55.092 113.855 54.7665 113.855 54.2588C113.855 53.686 113.442 53.4387 112.861 53.4387C112.59 53.4387 112.396 53.4647 112.306 53.4908V55.092Z" fill="#94CE41"/>
<path d="M116.115 53.0872C116.463 53.0351 116.864 52.9961 117.316 52.9961C118.116 52.9961 118.697 53.1914 119.072 53.5429C119.459 53.8943 119.691 54.402 119.691 55.105C119.691 55.808 119.472 56.4068 119.072 56.8104C118.658 57.2139 117.987 57.4482 117.148 57.4482C116.747 57.4482 116.412 57.4352 116.128 57.3962V53.0872H116.115ZM116.67 56.9666C116.812 56.9926 117.019 56.9926 117.238 56.9926C118.439 56.9926 119.084 56.3157 119.084 55.131C119.084 54.0896 118.516 53.4387 117.328 53.4387C117.031 53.4387 116.825 53.4647 116.67 53.4908V56.9536V56.9666Z" fill="#94CE41"/>
<path d="M121.86 53.0352V55.6387C121.86 56.6151 122.286 57.0317 122.88 57.0317C123.526 57.0317 123.939 56.6021 123.939 55.6387V53.0352H124.507V55.5867C124.507 56.9405 123.81 57.4873 122.867 57.4873C121.977 57.4873 121.305 56.9796 121.305 55.6127V53.0352H121.873H121.86Z" fill="#94CE41"/>
<path d="M126.354 53.0872C126.638 53.0351 127.051 52.9961 127.438 52.9961C128.032 52.9961 128.432 53.1133 128.703 53.3606C128.923 53.5559 129.039 53.8553 129.039 54.1937C129.039 54.7665 128.678 55.1571 128.226 55.3133C128.561 55.4435 128.755 55.7689 128.858 56.2115C129 56.8234 129.104 57.24 129.194 57.4092H128.613C128.549 57.279 128.445 56.9145 128.329 56.3547C128.2 55.7559 127.967 55.5216 127.451 55.5086H126.922V57.4092H126.366V53.0872H126.354ZM126.922 55.092H127.49C128.097 55.092 128.471 54.7665 128.471 54.2588C128.471 53.686 128.058 53.4387 127.477 53.4387C127.206 53.4387 127.012 53.4647 126.922 53.4908V55.092Z" fill="#94CE41"/>
<path d="M131.454 56.0423L131.002 57.4222H130.421L131.906 53.0352H132.577L134.062 57.4222H133.468L133.003 56.0423H131.467H131.454ZM132.887 55.5997L132.461 54.337C132.371 54.0506 132.306 53.7902 132.241 53.5429H132.229C132.164 53.8032 132.099 54.0636 132.009 54.337L131.583 55.5997H132.9H132.887Z" fill="#94CE41"/>
<path d="M135.521 56.7192C135.766 56.8754 136.141 57.0056 136.528 57.0056C137.096 57.0056 137.445 56.7062 137.445 56.2636C137.445 55.86 137.213 55.6127 136.619 55.3914C135.909 55.131 135.47 54.7665 135.47 54.1417C135.47 53.4647 136.038 52.957 136.877 52.957C137.316 52.957 137.652 53.0612 137.832 53.1653L137.677 53.634C137.535 53.5559 137.251 53.4257 136.851 53.4257C136.257 53.4257 136.025 53.7772 136.025 54.0766C136.025 54.4801 136.283 54.6884 136.89 54.9227C137.626 55.2091 138 55.5736 138 56.2115C138 56.8494 137.51 57.4743 136.477 57.4743C136.051 57.4743 135.599 57.3441 135.366 57.1879L135.508 56.7192H135.521Z" fill="#94CE41"/>
<path d="M19.6775 21.3104V19.8524C19.6775 19.4488 20.0003 19.1234 20.4006 19.1234H20.9558C21.356 19.1234 21.6788 19.4488 21.6788 19.8524V21.3104C21.6788 21.714 21.356 22.0394 20.9558 22.0394H20.4006C20.0003 22.0394 19.6775 21.714 19.6775 21.3104ZM23.7964 21.3104V19.8524C23.7964 19.4488 24.1191 19.1234 24.5194 19.1234H25.0746C25.4749 19.1234 25.7977 19.4488 25.7977 19.8524V21.3104C25.7977 21.714 25.4749 22.0394 25.0746 22.0394H24.5194C24.1191 22.0394 23.7964 21.714 23.7964 21.3104ZM27.9152 21.3104V19.8524C27.9152 19.4488 28.238 19.1234 28.6382 19.1234H29.1934C29.5937 19.1234 29.9165 19.4488 29.9165 19.8524V21.3104C29.9165 21.714 29.5937 22.0394 29.1934 22.0394H28.6382C28.238 22.0394 27.9152 21.714 27.9152 21.3104ZM24.7647 0C24.429 0 24.1708 0.273377 24.1708 0.598826V7.22497C19.9358 7.51137 16.5271 10.8049 16.0106 14.9967H14.6291C14.3708 14.9967 14.1513 15.205 14.1513 15.4784V16.7411C14.1513 17.0015 14.3579 17.2228 14.6291 17.2228H16.6433V23.9531H12.292C11.7756 23.9531 11.427 24.4868 11.6206 24.9685L12.3566 26.804C12.4728 27.0774 12.731 27.2596 13.028 27.2596H16.6433L15.9461 37.3225C15.9073 37.8953 15.9461 38.4811 16.0752 39.0539C16.4883 40.7853 17.4309 43.9226 18.3864 46.9298C19.6388 50.9002 20.8912 54.6755 20.917 54.7536C22.1049 54.1287 23.2282 53.3346 24.287 52.3713L24.4936 52.189C25.6944 51.1085 26.9339 49.989 28.0185 48.7913C29.4129 47.2813 30.7428 45.654 32.034 44.0788L32.615 43.3759C33.0669 42.8291 33.5059 42.2433 33.9449 41.6705L32.9378 27.2596H36.5531C36.8501 27.2596 37.1212 27.0774 37.2245 26.804L37.9605 24.9685C38.1541 24.4868 37.8055 23.9531 37.2891 23.9531H32.9378V17.2228H34.952C35.2103 17.2228 35.4298 17.0145 35.4298 16.7411V15.4784C35.4298 15.218 35.2232 14.9967 34.952 14.9967H33.5059C32.9895 10.8049 29.5808 7.51137 25.3458 7.22497V0.63788C25.3458 0.325449 25.1263 0.0390539 24.8164 0C24.7906 0 24.7776 0 24.7518 0H24.7647Z" fill="#94CE41"/>
<mask id="mask0_34_712" style="mask-type:luminance" maskUnits="userSpaceOnUse" x="11" y="0" width="28" height="55">
<path d="M19.6775 21.3104V19.8524C19.6775 19.4488 20.0003 19.1234 20.4006 19.1234H20.9558C21.356 19.1234 21.6788 19.4488 21.6788 19.8524V21.3104C21.6788 21.714 21.356 22.0394 20.9558 22.0394H20.4006C20.0003 22.0394 19.6775 21.714 19.6775 21.3104ZM23.7964 21.3104V19.8524C23.7964 19.4488 24.1191 19.1234 24.5194 19.1234H25.0746C25.4749 19.1234 25.7977 19.4488 25.7977 19.8524V21.3104C25.7977 21.714 25.4749 22.0394 25.0746 22.0394H24.5194C24.1191 22.0394 23.7964 21.714 23.7964 21.3104ZM27.9152 21.3104V19.8524C27.9152 19.4488 28.238 19.1234 28.6382 19.1234H29.1934C29.5937 19.1234 29.9165 19.4488 29.9165 19.8524V21.3104C29.9165 21.714 29.5937 22.0394 29.1934 22.0394H28.6382C28.238 22.0394 27.9152 21.714 27.9152 21.3104ZM24.7647 0C24.429 0 24.1708 0.273377 24.1708 0.598826V7.22497C19.9358 7.51137 16.5271 10.8049 16.0106 14.9967H14.6291C14.3708 14.9967 14.1513 15.205 14.1513 15.4784V16.7411C14.1513 17.0015 14.3579 17.2228 14.6291 17.2228H16.6433V23.9531H12.292C11.7756 23.9531 11.427 24.4868 11.6206 24.9685L12.3566 26.804C12.4728 27.0774 12.731 27.2596 13.028 27.2596H16.6433L15.9461 37.3225C15.9073 37.8953 15.9461 38.4811 16.0752 39.0539C16.4883 40.7853 17.4309 43.9226 18.3864 46.9298C19.6388 50.9002 20.8912 54.6755 20.917 54.7536C22.1049 54.1287 23.2282 53.3346 24.287 52.3713L24.4936 52.189C25.6944 51.1085 26.9339 49.989 28.0185 48.7913C29.4129 47.2813 30.7428 45.654 32.034 44.0788L32.615 43.3759C33.0669 42.8291 33.5059 42.2433 33.9449 41.6705L32.9378 27.2596H36.5531C36.8501 27.2596 37.1212 27.0774 37.2245 26.804L37.9605 24.9685C38.1541 24.4868 37.8055 23.9531 37.2891 23.9531H32.9378V17.2228H34.952C35.2103 17.2228 35.4298 17.0145 35.4298 16.7411V15.4784C35.4298 15.218 35.2232 14.9967 34.952 14.9967H33.5059C32.9895 10.8049 29.5808 7.51137 25.3458 7.22497V0.63788C25.3458 0.325449 25.1263 0.0390539 24.8164 0C24.7906 0 24.7776 0 24.7518 0H24.7647Z" fill="white"/>
</mask>
<g mask="url(#mask0_34_712)">
<path d="M38.1797 0H11.4268V54.7406H38.1797V0Z" fill="#94CE41"/>
</g>
<path d="M14.3578 20.4381C6.4171 21.9092 0.581025 28.7045 0.193675 36.7757C0.0645584 37.0621 0 37.3745 0 37.739C0 37.8952 0 38.0254 0.0258234 38.1686C0.180763 39.3142 0.335704 40.3947 0.503555 41.4361C0.916729 43.9746 1.45902 46.2918 2.14334 48.5309C2.58234 49.9759 3.06007 51.512 3.60236 53.0091C3.92515 53.9073 4.29959 54.7665 4.6482 55.6127C4.77732 55.9121 4.89353 56.1985 5.02264 56.4979C6.0814 59.0364 7.21763 61.1844 8.5088 63.059C9.98073 65.2069 11.401 66.7951 12.9891 68.0579C15.494 70.0496 18.1022 71.0129 20.9686 71.0129C21.3301 71.0129 21.7045 70.9999 22.079 70.9609C24.6226 70.7396 26.7659 69.7111 28.5219 68.7348C28.8318 68.5656 30.4974 67.6022 30.846 67.3419L31.2979 67.0034C31.8402 66.5998 32.3954 66.1963 32.9377 65.7276C34.2159 64.6472 35.3651 63.6578 36.4755 62.5903C37.6246 61.5098 38.6963 60.3773 39.6905 59.3098C40.646 58.2944 41.6531 57.2139 42.6214 56.0553C43.6673 54.7925 44.5195 53.7121 45.2813 52.5404C46.2755 51.0173 47.1793 49.4422 47.9927 47.854C48.4575 46.9427 48.7932 45.9924 49.1031 45.0681V45.0291C49.1935 44.8208 49.258 44.6125 49.3355 44.4042C49.6067 43.6361 49.8133 42.8681 49.9682 42.1H49.9811C50.1877 41.1758 50.2781 40.2515 50.2652 39.3402C50.2652 39.0408 50.2652 38.7284 50.2652 38.429C50.2006 36.8928 49.8262 35.4478 49.1677 34.12C48.5866 32.9614 47.7861 31.946 47.1534 31.204C46.3529 30.2667 45.4104 29.4335 44.2741 28.6655C42.9184 27.611 41.3819 26.6737 39.6776 25.8796L39.1482 27.1163C43.861 29.3164 48.4575 33.3259 48.9353 38.5722C48.9998 40.3686 48.7158 42.1781 48.0831 43.9746C48.0056 44.1829 47.9281 44.4042 47.8636 44.6125V44.6646C47.5537 45.5368 47.2438 46.435 46.8177 47.2682C46.0301 48.8173 45.1392 50.3534 44.1708 51.8375C43.4478 52.957 42.6214 53.9984 41.6014 55.2221C40.6589 56.3547 39.6647 57.4222 38.735 58.4246C37.7537 59.479 36.695 60.5855 35.5717 61.653C34.4742 62.6945 33.3509 63.6578 32.0855 64.7383C31.582 65.1679 31.0397 65.5714 30.5232 65.9489L30.0713 66.2874C29.8518 66.4436 29.6581 66.5478 29.4774 66.6129C29.3353 66.6519 29.1546 66.6649 29.0254 66.6259L28.3799 66.4697C28.5348 66.1442 28.7285 65.8318 28.948 65.5454C30.2521 63.788 31.6078 62.0826 32.9248 60.3382C34.8228 57.8257 36.553 55.1961 37.8829 52.3452C38.6576 50.6919 39.2257 49.0126 39.1869 47.5806C39.2128 44.8078 38.2186 42.9592 36.2431 41.6184C36.0107 41.4621 35.8815 41.4752 35.7008 41.7355C35.1843 42.4645 34.6808 43.1935 34.1127 43.8705C32.3567 45.9794 30.6523 48.1143 28.793 50.1321C27.6181 51.4209 26.3011 52.5925 24.997 53.7771C23.4218 55.1961 21.6658 56.3417 19.6645 57.0967C17.3533 57.9689 15.1712 57.6825 13.1054 56.4068C11.8142 55.6127 10.7554 54.5582 9.85161 53.3606C8.41841 51.4599 7.1918 49.4422 6.17178 47.3072C5.00973 44.8468 3.95097 42.3344 2.84057 39.8479C2.51778 39.1189 2.29828 38.3378 1.84637 37.6739C1.82055 37.6479 1.78181 37.5307 1.71725 37.3745C1.60105 37.0751 1.5494 36.7627 1.57522 36.4372C2.11752 29.1862 7.43713 23.1198 14.6289 21.792C14.913 21.7399 15.21 21.6879 15.494 21.6488L15.3262 20.334C15.0163 20.373 14.6935 20.4251 14.3965 20.4772" fill="#94CE41"/>
<mask id="mask1_34_712" style="mask-type:luminance" maskUnits="userSpaceOnUse" x="0" y="20" width="51" height="52">
<path d="M14.3578 20.4381C6.4171 21.9092 0.581025 28.7045 0.193675 36.7757C0.0645584 37.0621 0 37.3745 0 37.739C0 37.8952 0 38.0254 0.0258234 38.1686C0.180763 39.3142 0.335704 40.3947 0.503555 41.4361C0.916729 43.9746 1.45902 46.2918 2.14334 48.5309C2.58234 49.9759 3.06007 51.512 3.60236 53.0091C3.92515 53.9073 4.29959 54.7665 4.6482 55.6127C4.77732 55.9121 4.89353 56.1985 5.02264 56.4979C6.0814 59.0364 7.21763 61.1844 8.5088 63.059C9.98073 65.2069 11.401 66.7951 12.9891 68.0579C15.494 70.0496 18.1022 71.0129 20.9686 71.0129C21.3301 71.0129 21.7045 70.9999 22.079 70.9609C24.6226 70.7396 26.7659 69.7111 28.5219 68.7348C28.8318 68.5656 30.4974 67.6022 30.846 67.3419L31.2979 67.0034C31.8402 66.5998 32.3954 66.1963 32.9377 65.7276C34.2159 64.6472 35.3651 63.6578 36.4755 62.5903C37.6246 61.5098 38.6963 60.3773 39.6905 59.3098C40.646 58.2944 41.6531 57.2139 42.6214 56.0553C43.6673 54.7925 44.5195 53.7121 45.2813 52.5404C46.2755 51.0173 47.1793 49.4422 47.9927 47.854C48.4575 46.9427 48.7932 45.9924 49.1031 45.0681V45.0291C49.1935 44.8208 49.258 44.6125 49.3355 44.4042C49.6067 43.6361 49.8133 42.8681 49.9682 42.1H49.9811C50.1877 41.1758 50.2781 40.2515 50.2652 39.3402C50.2652 39.0408 50.2652 38.7284 50.2652 38.429C50.2006 36.8928 49.8262 35.4478 49.1677 34.12C48.5866 32.9614 47.7861 31.946 47.1534 31.204C46.3529 30.2667 45.4104 29.4335 44.2741 28.6655C42.9184 27.611 41.3819 26.6737 39.6776 25.8796L39.1482 27.1163C43.861 29.3164 48.4575 33.3259 48.9353 38.5722C48.9998 40.3686 48.7158 42.1781 48.0831 43.9746C48.0056 44.1829 47.9281 44.4042 47.8636 44.6125V44.6646C47.5537 45.5368 47.2438 46.435 46.8177 47.2682C46.0301 48.8173 45.1392 50.3534 44.1708 51.8375C43.4478 52.957 42.6214 53.9984 41.6014 55.2221C40.6589 56.3547 39.6647 57.4222 38.735 58.4246C37.7537 59.479 36.695 60.5855 35.5717 61.653C34.4742 62.6945 33.3509 63.6578 32.0855 64.7383C31.582 65.1679 31.0397 65.5714 30.5232 65.9489L30.0713 66.2874C29.8518 66.4436 29.6581 66.5478 29.4774 66.6129C29.3353 66.6519 29.1546 66.6649 29.0254 66.6259L28.3799 66.4697C28.5348 66.1442 28.7285 65.8318 28.948 65.5454C30.2521 63.788 31.6078 62.0826 32.9248 60.3382C34.8228 57.8257 36.553 55.1961 37.8829 52.3452C38.6576 50.6919 39.2257 49.0126 39.1869 47.5806C39.2128 44.8078 38.2186 42.9592 36.2431 41.6184C36.0107 41.4621 35.8815 41.4752 35.7008 41.7355C35.1843 42.4645 34.6808 43.1935 34.1127 43.8705C32.3567 45.9794 30.6523 48.1143 28.793 50.1321C27.6181 51.4209 26.3011 52.5925 24.997 53.7771C23.4218 55.1961 21.6658 56.3417 19.6645 57.0967C17.3533 57.9689 15.1712 57.6825 13.1054 56.4068C11.8142 55.6127 10.7554 54.5582 9.85161 53.3606C8.41841 51.4599 7.1918 49.4422 6.17178 47.3072C5.00973 44.8468 3.95097 42.3344 2.84057 39.8479C2.51778 39.1189 2.29828 38.3378 1.84637 37.6739C1.82055 37.6479 1.78181 37.5307 1.71725 37.3745C1.60105 37.0751 1.5494 36.7627 1.57522 36.4372C2.11752 29.1862 7.43713 23.1198 14.6289 21.792C14.913 21.7399 15.21 21.6879 15.494 21.6488L15.3262 20.334C15.0163 20.373 14.6935 20.4251 14.3965 20.4772" fill="white"/>
</mask>
<g mask="url(#mask1_34_712)">
<path d="M50.2781 20.2949H0V70.9999H50.2781V20.2949Z" fill="#94CE41"/>
</g>
</g>
<defs>
<clipPath id="clip0_34_712">
<rect width="138" height="71" fill="white"/>
</clipPath>
</defs>
</svg>
