<svg width="627" height="361" viewBox="0 0 627 361" fill="none" xmlns="http://www.w3.org/2000/svg">
<g clip-path="url(#clip0_10_552)">
<path d="M74.6886 174.14C95.8801 174.14 112.869 179.899 125.675 191.412C138.474 202.924 144.877 217.296 144.877 234.522C144.877 251.748 138.521 266.166 125.807 277.758C113.094 289.356 96.0519 295.149 74.6886 295.149H45.8189V355.531H0V174.14H74.6886ZM73.6314 253.161C81.0454 253.161 86.9132 251.424 91.2479 247.943C95.5695 244.463 97.7369 239.991 97.7369 234.522C97.7369 229.053 95.5695 224.833 91.2479 221.352C86.9198 217.871 81.052 216.134 73.6314 216.134H45.8189V253.161H73.6314Z" fill="#F7EDE2"/>
<path d="M214.531 174.14H263.793L328.153 355.531H277.828L267.764 323.729H210.818L200.754 355.531H150.164L214.525 174.14H214.531ZM255.322 283.973L239.165 232.785L223.273 283.973H255.322Z" fill="#F7EDE2"/>
<path d="M390.664 355.538H344.845V174.146H390.664V355.538ZM381.882 162.343H350.422L364.457 140.349H400.8L381.882 162.343Z" fill="#F7EDE2"/>
<path d="M416.619 329.693L444.96 302.606C458.024 314.534 472.416 320.499 488.129 320.499C495.722 320.499 501.676 319.052 506.01 316.152C510.332 313.253 512.499 309.237 512.499 304.098C512.499 300.287 510.821 296.932 507.464 294.033C504.107 291.133 499.739 288.689 494.354 286.701C488.969 284.713 482.962 282.725 476.341 280.737C469.72 278.749 463.138 276.265 456.61 273.28C450.075 270.301 444.114 266.86 438.729 262.969C433.344 259.079 428.969 253.775 425.619 247.065C422.262 240.354 420.584 232.692 420.584 224.08C420.584 208.175 426.584 195.295 438.597 185.441C450.603 175.586 466.495 170.659 486.273 170.659C498.458 170.659 510.332 173.103 521.896 177.99C533.459 182.878 543.483 190.289 551.955 200.229L520.171 223.835C512.4 214.562 501.537 209.76 487.594 209.423C481.059 209.423 475.674 210.751 471.438 213.399C467.202 216.048 465.081 219.449 465.081 223.584C465.081 227.065 466.76 230.09 470.116 232.653C473.467 235.222 477.841 237.415 483.226 239.238C488.612 241.061 494.572 242.923 501.107 244.826C507.636 246.734 514.217 249.172 520.838 252.157C527.459 255.136 533.459 258.577 538.851 262.467C544.237 266.364 548.605 271.662 551.961 278.372C555.312 285.083 556.997 292.745 556.997 301.357C556.997 318.59 550.726 332.586 538.191 343.352C525.649 354.124 508.878 359.501 487.865 359.501C458.553 359.501 434.804 349.56 416.619 329.679V329.693Z" fill="#F7EDE2"/>
<path d="M586.917 323.484C591.331 319.343 596.802 317.269 603.337 317.269C609.872 317.269 615.126 319.382 619.626 323.603C624.126 327.824 626.379 333.008 626.379 339.131C626.379 345.254 624.126 350.439 619.626 354.659C615.126 358.88 609.694 360.994 603.337 360.994C596.98 360.994 591.284 358.88 586.785 354.659C582.285 350.439 580.031 345.261 580.031 339.131C580.031 333.002 582.324 327.784 586.917 323.478V323.484ZM581.624 174.14H624.793L620.557 307.573H585.859L581.624 174.14Z" fill="#F7EDE2"/>
<path d="M8.16071 8.15711C13.599 2.72124 20.1936 0 27.938 0C32.3521 0 36.4754 0.970927 40.3278 2.89957C44.1735 4.83482 47.4246 7.49001 50.0678 10.8717L38.5965 17.7079C35.8014 14.5705 32.2464 13.0051 27.938 13.0051C23.8676 13.0051 20.3654 14.4648 17.4249 17.3776C14.4844 20.2904 13.0109 23.7844 13.0109 27.8465C13.0109 31.9085 14.4712 35.4752 17.3853 38.3946C20.2993 41.3073 23.8213 42.767 27.938 42.767C31.1759 42.767 33.8785 41.9943 36.0591 40.4553C38.2397 38.9097 39.6736 36.7962 40.3608 34.1013H25.6583V22.4898H54.4752C54.8651 24.3062 55.0633 26.0895 55.0633 27.8531C55.0633 36.2281 52.5655 42.9916 47.5634 48.1369C42.5612 53.2821 36.0194 55.8514 27.9314 55.8514C19.8434 55.8514 13.5924 53.1236 8.1541 47.6547C2.72244 42.1924 0 35.5941 0 27.8531C0 20.1121 2.72244 13.593 8.16071 8.15711Z" fill="#F7EDE2"/>
<path d="M75.2104 54.6761H62.4902V1.03076H75.2104V54.6761Z" fill="#F7EDE2"/>
<path d="M90.7191 8.15711C96.1573 2.72124 102.752 0 110.496 0C114.91 0 119.034 0.970927 122.886 2.89957C126.732 4.83482 129.983 7.49001 132.626 10.8717L121.155 17.7079C118.36 14.5705 114.805 13.0051 110.496 13.0051C106.426 13.0051 102.924 14.4648 99.9833 17.3776C97.0428 20.2904 95.5692 23.7844 95.5692 27.8465C95.5692 31.9085 97.0296 35.4752 99.9436 38.3946C102.858 41.3073 106.38 42.767 110.496 42.767C113.734 42.767 116.437 41.9943 118.617 40.4553C120.798 38.9097 122.232 36.7962 122.919 34.1013H108.217V22.4898H137.034C137.423 24.3062 137.622 26.0895 137.622 27.8531C137.622 36.2281 135.124 42.9916 130.122 48.1369C125.12 53.2821 118.578 55.8514 110.49 55.8514C102.402 55.8514 96.1507 53.1236 90.7125 47.6547C85.2742 42.1924 82.5518 35.5941 82.5518 27.8531C82.5518 20.1121 85.2742 13.5996 90.7125 8.15711H90.7191Z" fill="#F7EDE2"/>
<path d="M158.285 1.03076H171.956L189.824 54.6761H175.855L173.06 45.2707H157.254L154.459 54.6761H140.417L158.285 1.03076ZM169.611 33.5073L165.124 18.3687L160.71 33.5073H169.604H169.611Z" fill="#F7EDE2"/>
<path d="M194.456 54.6761V1.03076H207.176L227.984 32.041V1.03076H240.777V54.6761H227.984L207.176 23.6659V54.6761H194.456Z" fill="#F7EDE2"/>
<path d="M246.433 1.03076H287.898V13.2301H273.559V54.6761H260.838V13.2301H246.427V1.03076H246.433Z" fill="#F7EDE2"/>
<path d="M293.634 1.03076H327.896V12.6423H306.281V21.5325H326.429V32.9987H306.281V42.4768H328.629V54.6761H293.634V1.03076Z" fill="#F7EDE2"/>
<path d="M333.994 47.0341L341.857 39.0223C345.485 42.5493 349.476 44.3128 353.844 44.3128C355.952 44.3128 357.604 43.8835 358.807 43.0249C360.009 42.1662 360.611 40.9774 360.611 39.4582C360.611 38.3288 360.141 37.338 359.216 36.4794C358.285 35.6207 357.069 34.9008 355.575 34.313C354.082 33.7251 352.417 33.1373 350.573 32.5494C348.736 31.9616 346.906 31.2284 345.095 30.3434C343.278 29.4583 341.626 28.4478 340.133 27.2919C338.639 26.1426 337.424 24.5707 336.492 22.5892C335.56 20.6077 335.098 18.3422 335.098 15.7927C335.098 11.09 336.763 7.27891 340.1 4.36613C343.43 1.45335 347.844 -0.00634766 353.335 -0.00634766C356.719 -0.00634766 360.016 0.720196 363.221 2.16008C366.432 3.60656 369.214 5.7994 371.566 8.7386L362.745 15.72C360.591 12.979 357.571 11.5589 353.699 11.4598C351.882 11.4598 350.388 11.8495 349.212 12.6355C348.036 13.4215 347.448 14.4255 347.448 15.6474C347.448 16.6777 347.91 17.5694 348.842 18.329C349.774 19.0886 350.983 19.7358 352.483 20.2774C353.976 20.8191 355.635 21.3673 357.445 21.9287C359.256 22.4901 361.086 23.2166 362.923 24.0951C364.76 24.9802 366.426 25.9973 367.925 27.1466C369.419 28.2959 370.635 29.8678 371.566 31.8493C372.498 33.8308 372.961 36.1029 372.961 38.6458C372.961 43.7448 371.223 47.8795 367.74 51.0631C364.258 54.2467 359.606 55.8385 353.771 55.8385C345.637 55.8385 339.043 52.8993 333.994 47.0209V47.0341Z" fill="#F7EDE2"/>
<path d="M397.807 47.0341L405.67 39.0223C409.298 42.5493 413.289 44.3128 417.657 44.3128C419.765 44.3128 421.417 43.8835 422.619 43.0249C423.822 42.1662 424.423 40.9774 424.423 39.4582C424.423 38.3288 423.954 37.338 423.029 36.4794C422.097 35.6207 420.881 34.9008 419.388 34.313C417.895 33.7251 416.229 33.1373 414.386 32.5494C412.549 31.9616 410.718 31.2284 408.908 30.3434C407.091 29.4583 405.439 28.4478 403.945 27.2919C402.452 26.1426 401.236 24.5707 400.304 22.5892C399.373 20.6077 398.91 18.3422 398.91 15.7927C398.91 11.09 400.575 7.27891 403.912 4.36613C407.243 1.45335 411.657 -0.00634766 417.148 -0.00634766C420.531 -0.00634766 423.828 0.720196 427.033 2.16008C430.245 3.60656 433.027 5.7994 435.379 8.7386L426.557 15.72C424.403 12.979 421.383 11.5589 417.511 11.4598C415.694 11.4598 414.201 11.8495 413.025 12.6355C411.848 13.4215 411.26 14.4255 411.26 15.6474C411.26 16.6777 411.723 17.5694 412.654 18.329C413.586 19.0886 414.795 19.7358 416.295 20.2774C417.789 20.8191 419.447 21.3673 421.258 21.9287C423.068 22.4901 424.899 23.2166 426.736 24.0951C428.573 24.9802 430.238 25.9973 431.738 27.1466C433.231 28.2959 434.447 29.8678 435.379 31.8493C436.311 33.8308 436.773 36.1029 436.773 38.6458C436.773 43.7448 435.035 47.8795 431.553 51.0631C428.071 54.2467 423.419 55.8385 417.584 55.8385C409.45 55.8385 402.855 52.8993 397.807 47.0209V47.0341Z" fill="#F7EDE2"/>
<path d="M444.127 1.03076H478.389V12.6423H456.775V21.5325H476.922V32.9987H456.775V42.4768H479.123V54.6761H444.127V1.03076Z" fill="#F7EDE2"/>
<path d="M13.8241 73.0376V106.327C13.8241 109.068 14.6104 111.214 16.1765 112.76C17.7426 114.305 19.8042 115.071 22.3549 115.071C24.9055 115.071 26.9143 114.299 28.5332 112.76C30.1521 111.214 30.9583 109.074 30.9583 106.327V73.0376H43.7511V106.327C43.7511 112.694 41.7159 117.865 37.652 121.835C33.5816 125.851 28.4869 127.859 22.3615 127.859C16.236 127.859 11.1611 125.864 7.14356 121.868C3.12598 117.879 1.11719 112.694 1.11719 106.327V73.0376H13.8373H13.8241Z" fill="#F7EDE2"/>
<path d="M52.1953 126.683V73.0376H64.9154L85.7236 104.048V73.0376H98.5164V126.683H85.7236L64.9154 95.6728V126.683H52.1953Z" fill="#F7EDE2"/>
<path d="M120.421 126.683H107.701V73.0376H120.421V126.683Z" fill="#F7EDE2"/>
<path d="M150.342 73.0376C156.223 73.0376 160.941 74.7417 164.496 78.1432C168.051 81.5514 169.829 85.7984 169.829 90.8908C169.829 94.2725 168.97 97.3306 167.258 100.078C165.54 102.826 163.188 104.88 160.201 106.254L170.932 126.683H156.448L147.626 108.823H142.333V126.683H129.613V73.0376H150.349H150.342ZM150.051 96.4059C152.113 96.4059 153.739 95.8907 154.941 94.8603C156.144 93.83 156.745 92.509 156.745 90.8908C156.745 89.2726 156.144 88.0242 154.941 86.9939C153.739 85.9635 152.113 85.4483 150.051 85.4483H142.333V96.3993H150.051V96.4059Z" fill="#F7EDE2"/>
<path d="M189.534 73.0376H203.205L221.073 126.683H207.104L204.309 117.278H188.503L185.708 126.683H171.666L189.534 73.0376ZM200.853 105.521L196.366 90.3822L191.952 105.521H200.846H200.853Z" fill="#F7EDE2"/>
<path d="M225.705 126.683V73.0376H238.571L254.747 100.818L270.923 73.0376H283.788V126.683H271.068V94.7877L258.057 117.198H251.443L238.432 94.7877V126.683H225.712H225.705Z" fill="#F7EDE2"/>
<path d="M312.525 126.683V73.0376H325.246L346.054 104.048V73.0376H358.846V126.683H346.054L325.246 95.6728V126.683H312.525Z" fill="#F7EDE2"/>
<path d="M374.355 80.1644C379.793 74.7286 386.388 72.0073 394.132 72.0073C401.877 72.0073 408.392 74.7286 413.837 80.1644C419.275 85.6003 421.998 92.1656 421.998 99.8604C421.998 107.555 419.275 114.2 413.837 119.662C408.399 125.124 401.831 127.859 394.132 127.859C386.434 127.859 379.793 125.131 374.355 119.662C368.917 114.2 366.194 107.601 366.194 99.8604C366.194 92.1194 368.917 85.6069 374.355 80.1644ZM383.619 110.369C386.514 113.308 390.016 114.781 394.132 114.781C398.249 114.781 401.679 113.321 404.573 110.408C407.467 107.496 408.908 103.975 408.908 99.8604C408.908 95.7455 407.46 92.3043 404.573 89.3915C401.679 86.4788 398.203 85.0191 394.132 85.0191C390.062 85.0191 386.56 86.4788 383.619 89.3915C380.679 92.3043 379.205 95.7983 379.205 99.8604C379.205 103.922 380.679 107.476 383.619 110.369Z" fill="#F7EDE2"/>
<path d="M446.922 119.041L454.786 111.03C458.413 114.557 462.405 116.32 466.772 116.32C468.88 116.32 470.532 115.891 471.735 115.032C472.938 114.174 473.539 112.985 473.539 111.466C473.539 110.336 473.07 109.345 472.145 108.487C471.213 107.628 469.997 106.908 468.504 106.32C467.01 105.732 465.345 105.145 463.501 104.557C461.665 103.969 459.834 103.236 458.024 102.351C456.206 101.466 454.554 100.455 453.061 99.2992C451.568 98.15 450.352 96.578 449.42 94.5965C448.488 92.615 448.026 90.3495 448.026 87.8C448.026 83.0973 449.691 79.2862 453.028 76.3734C456.358 73.4607 460.772 72.001 466.264 72.001C469.647 72.001 472.944 72.7275 476.149 74.1674C479.36 75.6139 482.142 77.8067 484.495 80.7459L475.673 87.7274C473.519 84.9863 470.499 83.5662 466.627 83.4672C464.81 83.4672 463.316 83.8569 462.14 84.6428C460.964 85.4288 460.376 86.4328 460.376 87.6547C460.376 88.6851 460.839 89.5767 461.77 90.3363C462.702 91.0959 463.911 91.7432 465.411 92.2848C466.905 92.8264 468.563 93.3746 470.374 93.936C472.184 94.4974 474.015 95.224 475.852 96.1024C477.689 96.9875 479.354 98.0047 480.854 99.1539C482.347 100.303 483.563 101.875 484.495 103.857C485.426 105.838 485.889 108.11 485.889 110.653C485.889 115.752 484.151 119.887 480.669 123.07C477.186 126.254 472.534 127.846 466.7 127.846C458.565 127.846 451.971 124.907 446.922 119.028V119.041Z" fill="#F7EDE2"/>
<path d="M505.217 73.0376V106.327C505.217 109.068 506.003 111.214 507.57 112.76C509.136 114.305 511.197 115.071 513.748 115.071C516.299 115.071 518.307 114.299 519.926 112.76C521.545 111.214 522.351 109.074 522.351 106.327V73.0376H535.144V106.327C535.144 112.694 533.109 117.865 529.045 121.835C524.975 125.851 519.88 127.859 513.754 127.859C507.629 127.859 502.554 125.864 498.537 121.868C494.519 117.879 492.51 112.694 492.51 106.327V73.0376H505.23H505.217Z" fill="#F7EDE2"/>
<path d="M579.324 126.683H543.596V73.0376H556.316V113.968H579.324V126.683Z" fill="#F7EDE2"/>
<path d="M579.304 76.1021C583.619 76.1021 587.161 77.4495 589.936 80.1443C592.712 82.8391 594.099 86.1614 594.099 90.1178C594.099 94.0741 592.738 97.4757 590.016 100.17C587.293 102.865 583.725 104.213 579.304 104.213H570.906V76.1021H579.304ZM573.952 79.1403V101.168H579.304C582.846 101.168 585.674 100.111 587.782 97.9908C589.89 95.8707 590.941 93.2353 590.941 90.0781C590.941 86.921 589.864 84.4639 587.703 82.3173C585.549 80.1773 582.747 79.1007 579.304 79.1007L573.952 79.1403Z" fill="#F7EDE2"/>
<path d="M602.419 79.9529C605.22 77.1524 608.61 75.7588 612.588 75.7588C616.566 75.7588 619.963 77.1656 622.778 79.9727C625.592 82.7865 626.993 86.1814 626.993 90.1576C626.993 94.1338 625.593 97.5353 622.797 100.362C619.969 103.209 616.566 104.636 612.588 104.636C608.61 104.636 605.214 103.216 602.399 100.382C599.584 97.5485 598.183 94.1404 598.183 90.1576C598.183 86.1748 599.597 82.7799 602.419 79.9529ZM601.302 90.1179C601.302 93.2751 602.406 95.9567 604.613 98.1628C606.82 100.369 609.483 101.472 612.588 101.472C615.694 101.472 618.357 100.369 620.564 98.1628C622.771 95.9567 623.874 93.2751 623.874 90.1179C623.874 86.9608 622.771 84.3584 620.564 82.1656C618.357 79.9727 615.694 78.8763 612.588 78.8763C609.483 78.8763 606.82 79.9727 604.613 82.1656C602.406 84.3584 601.302 87.0136 601.302 90.1179Z" fill="#F7EDE2"/>
</g>
<defs>
<clipPath id="clip0_10_552">
<rect width="627" height="361" fill="white"/>
</clipPath>
</defs>
</svg>
